<?xml version="1.0" standalone="no"?>
<!DOCTYPE svg PUBLIC "-//W3C//DTD SVG 1.1//EN" "http://www.w3.org/Graphics/SVG/1.1/DTD/svg11.dtd" >
<svg xmlns="http://www.w3.org/2000/svg" xmlns:xlink="http://www.w3.org/1999/xlink" version="1.1" viewBox="-10 0 1099 1024">
   <path fill="currentColor"
d="M392 672q18 63 38 104t50 65q29 24 71 34q42 9 105 9q35 0 70 -2q34 -3 64 -13q30 -11 53 -33q22 -22 32 -62q4 -15 7 -30q2 -15 4 -36q1 -21 2 -51t1 -74q1 -48 2 -81v-35q2 -2 20 -3q18 -2 43 -3q26 0 41 -1t23 -4q7 -3 9 -8q2 -6 1 -15q-2 -17 -16 -31t-34 -18
q-8 -1 -10 -2q-2 -2 -1 -8t-4 -14t-10 -8q-4 0 -7 -26q-4 -33 -7 -56q-4 -24 -8 -41q-4 -18 -9 -33q-6 -15 -14 -32q-42 -88 -120 -145t-182 -74q-17 -3 -42 -4q-25 -2 -49 -2q-60 0 -118 15q-58 14 -108 43q-50 28 -91 71q-41 42 -67 98q-10 20 -16 39q-7 18 -11 40
q-5 21 -8 49q-4 27 -7 66q-9 126 -18 127q-22 7 -22 25q0 5 -10 12q-19 11 -19 35q0 11 4 19t15 15q10 7 27 13t43 13q49 12 111 20q61 7 117 7l48 1l7 25v0zM742 806q-15 2 -37 3q-23 1 -46 1q-30 0 -57 -1q-27 -2 -38 -5q-32 -8 -53 -40q-22 -33 -44 -103q-4 -13 -6 -23
q-3 -10 -3 -12t5 -8t13 -14q19 -17 41 -52q17 -26 29 -40q12 -15 29 -22q16 -8 41 -10q24 -3 66 -5q26 -2 53 -3t40 -2q19 -2 26 -1q6 1 10 3q2 1 3 4q0 3 1 13q1 9 1 28v50q0 70 -2 115q-3 44 -9 68q-5 26 -20 39q-15 12 -43 17v0zM430 538q-15 17 -40 25q-25 7 -48 7h-11
t-14 -1t-30 -3t-50 -5q-28 -4 -58 -8q-31 -5 -56 -11q-26 -6 -42 -13q-16 -8 -15 -16q1 -5 3 -7q1 -3 7 -3q10 0 35 7q51 14 109 22t114 8q22 0 36 -1t24 -6t19 -15q8 -11 20 -31q59 -95 147 -111q11 -2 70 -5q59 -4 148 -8q28 -2 58 -3t45 -2q30 -2 39 0t9 11t-10 12
q-10 2 -44 4q-26 1 -68 3t-84 5q-43 2 -78 4q-36 2 -49 3q-29 2 -52 9q-23 6 -41 18q-19 12 -35 31q-17 19 -34 47q-6 9 -12 19q-7 9 -12 14v0z" />
</svg>
